# xmcd
#
# Track frame offsets:
# 150
# 18055
# 31915
# 48165
# 66100
# 81672
# 94085
# 110087
# 126045
# 141927
# 160632
# 176855
#
# Disc length: 2554 seconds
#
#
# Revision: 3
# Processed by: cddbd v1.5.1PL0 Copyright (c) Steve Scherf et al.
# Submitted via: FreeRIP 2.90 
#
DISCID=9c09f80c
DTITLE=John Denver - Windsong
DYEAR=1975
DGENRE=Country
TTITLE0=Windsong
TTITLE1=Cowboy's Delight
TTITLE2=Spirit
TTITLE3=Looking For Space
TTITLE4=Shipmates And Cheyenne
TTITLE5=Late Nite Radio
TTITLE6=Love Is Everywhere
TTITLE7=Two Shots
TTITLE8=I'm Sorry
TTITLE9=Fly Away
TTITLE10=Calypso
TTITLE11=Song Of Wyoming
EXTD=
EXTT0=
EXTT1=
EXTT2=
EXTT3=
EXTT4=
EXTT5=
EXTT6=
EXTT7=
EXTT8=
EXTT9=
EXTT10=
EXTT11=
PLAYORDER=
